<?xml version="1.0" encoding="UTF-8"?>
<svg id="Layer_1" data-name="Layer 1" xmlns="http://www.w3.org/2000/svg" viewBox="0 0 222 44">
  <g>
    <path d="M33.71,34.47h26.43c1.43,0,1.72.86,1.72,2.43s-.29,2.39-1.72,2.39h-31.63c-3.43,0-4.63-.76-4.63-2.48,0-.86.29-1.53,1.19-2.19l30.05-19.48c.72-.52,1.72-.67,3.48-.67s3.24.14,3.24,1.53c0,.76-.43,1.1-1.43,1.81l-26.72,16.67Z"/>
    <path d="M59.7,13c.98,0,1.93.51,2.33,1.4.14.3.21.62.21.94,0,1.72-1.2,2.48-4.67,2.48h-31.95c-1.45,0-1.73-.81-1.73-2.39s.29-2.43,1.73-2.43h26.7s7.39,0,7.39,0Z"/>
  </g>
  <path d="M103.98,14.39v16.6c0,5.58-4.53,8.3-13.5,8.3h-11.4c-8.97,0-13.5-2.72-13.5-8.3V14.39c0-1.81,1-2.24,3.05-2.24s3.01.43,3.01,2.24v16.6c0,1.96,2.29,3.48,7.63,3.48h11.02c5.34,0,7.63-1.53,7.63-3.48V14.39c0-1.81,1-2.24,3.05-2.24s3.01.43,3.01,2.24Z"/>
  <path d="M140.24,6.76c0-1.81,1-2.24,3.05-2.24s3,.43,3,2.24v24.24c0,5.53-4.53,8.3-13.5,8.3h-11.45c-8.97,0-13.5-2.77-13.5-8.3v-10.35c0-5.58,4.53-8.3,13.5-8.3h18.89v-5.58ZM121.54,17.16c-5.34,0-7.63,1.53-7.63,3.48v10.35c0,1.91,2.29,3.48,7.63,3.48h11.07c5.34,0,7.63-1.57,7.63-3.48v-13.83h-18.7Z"/>
  <path d="M153.61,5.3c2.67,0,3.77.91,3.77,2.96s-1.1,2.96-3.77,2.96-3.77-.91-3.77-2.96,1.1-2.96,3.77-2.96ZM156.66,37.24c0,1.81-1,2.24-3.05,2.24s-3-.43-3-2.24V14.72c0-1.81,1-2.24,3-2.24s3.05.43,3.05,2.24v22.52Z"/>
  <path d="M174.22,12.34h10.4c8.97,0,13.5,2.72,13.5,8.3v10.35c0,5.53-4.53,8.3-13.5,8.3h-10.4c-8.97,0-13.5-2.77-13.5-8.3v-10.35c0-5.58,4.53-8.3,13.5-8.3ZM192.06,20.64c0-1.96-2.29-3.48-7.63-3.48h-10.02c-5.34,0-7.63,1.53-7.63,3.48v10.35c0,1.91,2.29,3.48,7.63,3.48h10.02c5.34,0,7.63-1.57,7.63-3.48v-10.35Z"/>
</svg>